<?xml version="1.0" encoding="UTF-8" standalone="no"?>
<svg
   id="svg1"
   version="1.1"
   viewBox="0 0 500.16 500.16"
   sodipodi:docname="LOGO VECTOR.svg"
   inkscape:version="1.4.2 (f4327f4, 2025-05-13)"
   inkscape:export-filename="school-logo.png"
   inkscape:export-xdpi="96"
   inkscape:export-ydpi="96"
   xmlns:inkscape="http://www.inkscape.org/namespaces/inkscape"
   xmlns:sodipodi="http://sodipodi.sourceforge.net/DTD/sodipodi-0.dtd"
   xmlns="http://www.w3.org/2000/svg"
   xmlns:svg="http://www.w3.org/2000/svg">
  <!-- Generator: Adobe Illustrator 29.7.1, SVG Export Plug-In . SVG Version: 2.1.1 Build 8)  -->
  <defs
     id="defs1">
    <rect
       x="167.99159"
       y="221.04157"
       width="382.14719"
       height="100.25349"
       id="rect2" />
    <style
       id="style1">
      .st0 {
        fill: #fff;
      }

      .st1 {
        fill: #074cae;
      }
    </style>
  </defs>
  <sodipodi:namedview
     id="namedview1"
     bordercolor="#000000"
     borderopacity="0.25"
     inkscape:current-layer="svg1"
     inkscape:cx="260.38696"
     inkscape:cy="584.87597"
     inkscape:deskcolor="#d1d1d1"
     inkscape:pagecheckerboard="0"
     inkscape:pageopacity="0.0"
     inkscape:showpageshadow="2"
     inkscape:window-height="991"
     inkscape:window-maximized="1"
     inkscape:window-width="1920"
     inkscape:window-x="-9"
     inkscape:window-y="-9"
     inkscape:zoom="1.131009"
     pagecolor="#ffffff"
     showguides="true" />
  <rect
     style="fill:#074cae;fill-opacity:1;stroke-width:3.48408;stroke-opacity:0.2;paint-order:markers fill stroke"
     id="rect1"
     width="165.36569"
     height="174.04172"
     x="3.5527137e-15"
     y="304.46841"
     ry="6.2173057"
     inkscape:export-filename="..\files\system\usr\share\plymouth\themes\school-bgrt\watermark.png"
     inkscape:export-xdpi="95.969292"
     inkscape:export-ydpi="95.969292" />
  <path
     id="path1"
     class="st0"
     d="m 50.481323,438.20486 c -0.635177,-0.0876 -1.472912,-0.24507 -1.860518,-0.3526 -0.387611,-0.10755 -1.030291,-0.27258 -1.425401,-0.3676 -0.700196,-0.17004 -1.167825,-0.33759 -2.160604,-0.78272 -0.265074,-0.11752 -0.630175,-0.25007 -0.81273,-0.29508 -0.700192,-0.17004 -0.382606,-0.26008 1.177831,-0.34009 1.95805,-0.0975 3.591005,-0.38261 6.356781,-1.11282 2.638238,-0.69519 4.986397,-1.62044 7.984737,-3.14838 2.635738,-1.34537 3.120877,-1.63796 3.120877,-1.88802 0,-0.10253 -0.262573,-0.49515 -0.580172,-0.87025 -0.492635,-0.57766 -0.960257,-1.22534 -1.387883,-1.92054 -0.055,-0.0876 0.245069,0.08 0.665185,0.3726 0.420117,0.29259 0.905256,0.60768 1.077806,0.70021 1.91053,1.02778 1.77299,0.98027 2.1506,0.7452 1.702982,-1.0653 3.961111,-2.67075 3.961111,-2.81828 0,-0.14755 -0.352608,-0.28509 -1.860526,-0.6902 -0.792718,-0.21506 -1.818008,-0.54265 -2.280632,-0.7302 -0.462635,-0.18755 -0.975275,-0.38011 -1.137828,-0.42762 -0.162542,-0.0475 -0.92025,-0.36511 -1.680468,-0.70771 -2.655743,-1.19533 -4.436242,-2.60073 -5.171444,-4.08614 -0.402613,-0.81522 -1.550436,-4.01613 -1.63296,-4.56377 l -0.05501,-0.36011 0.267573,0.36011 c 0.740208,0.99278 2.648241,2.44318 4.21368,3.20339 1.030289,0.50014 4.113657,1.72298 4.776343,1.89303 0.297583,0.0775 0.755209,0.21756 1.020281,0.31259 1.36538,0.49014 6.099205,1.56543 7.92722,1.80051 l 0.602663,0.0775 1.557945,-1.4329 c 3.053345,-2.80578 3.943595,-3.70354 3.871076,-3.89609 -0.05255,-0.13754 -0.482627,-0.23506 -1.732982,-0.38511 -0.912753,-0.11001 -1.933045,-0.25257 -2.263139,-0.31509 -0.330081,-0.0625 -0.95276,-0.14754 -1.380385,-0.18755 -0.430114,-0.0401 -0.942765,-0.12254 -1.140316,-0.18005 -0.197552,-0.0576 -0.792718,-0.18506 -1.320363,-0.28258 -0.527657,-0.0975 -1.312877,-0.26257 -1.740491,-0.3651 -0.430125,-0.10498 -1.26786,-0.29259 -1.860526,-0.41762 -1.47041,-0.31259 -5.481536,-1.51043 -6.484312,-1.93554 -0.132542,-0.055 -0.567665,-0.23506 -0.965267,-0.39762 -1.160332,-0.47513 -3.333438,-1.59794 -3.846079,-1.98555 -1.702977,-1.29537 -2.400674,-2.05058 -2.725763,-2.95082 -0.42012,-1.17033 -0.447626,-1.39289 -0.447626,-3.82107 0,-2.42818 0.08502,-2.92332 0.310087,-2.21563 0.08752,0.27259 0.380108,0.7277 0.86024,1.33037 0.647681,0.81274 2.805787,2.34566 4.173671,2.96584 1.232838,0.55765 1.770491,0.79022 2.70076,1.17032 1.98055,0.81023 6.096706,1.98306 8.544889,2.43318 0.747711,0.13754 1.928035,0.35761 2.620733,0.48764 2.1506,0.40261 7.559618,1.10532 10.195357,1.32287 l 1.850506,0.15255 0.190055,-0.27258 c 0.104983,-0.15004 0.570164,-0.7227 1.032799,-1.27286 0.78772,-0.93775 2.098086,-2.59072 3.273412,-4.13365 0.282582,-0.37011 0.497651,-0.75272 0.480146,-0.85274 -0.02756,-0.14755 -0.390117,-0.19756 -1.953055,-0.26758 -2.635739,-0.12004 -6.136725,-0.41511 -8.224803,-0.69019 -0.95777,-0.12753 -2.415684,-0.31509 -3.240912,-0.42262 -1.337879,-0.17005 -2.343154,-0.3451 -4.563774,-0.79023 -0.362604,-0.0725 -0.930257,-0.18754 -1.260351,-0.25256 -0.525146,-0.10498 -1.858027,-0.41012 -3.661029,-0.83774 -0.472632,-0.11257 -1.22784,-0.34759 -3.661029,-1.14282 -0.330094,-0.10755 -0.655178,-0.23506 -0.720199,-0.28258 -0.06504,-0.0475 -0.335092,-0.15503 -0.600164,-0.23756 -0.722709,-0.22756 -3.263415,-1.48292 -4.108653,-2.02808 -1.180329,-0.7627 -2.343154,-1.98305 -2.780777,-2.91831 -0.597668,-1.28036 -0.570161,-1.52543 0.532648,-4.91138 0.292582,-0.89774 0.532649,-1.75048 0.532649,-1.89052 0,-0.14004 0.05501,-0.25758 0.120033,-0.25758 0.06502,0 0.120033,0.16255 0.120033,0.36261 0,0.20006 0.04502,0.45512 0.10253,0.57016 0.05751,0.11503 0.20506,0.42012 0.330095,0.67768 0.450124,0.93027 1.84051,2.22313 3.408452,3.17089 0.870245,0.52515 2.953325,1.48542 4.083645,1.88053 1.890526,0.66269 4.128651,1.36038 5.163949,1.61045 1.515416,0.36761 3.320928,0.73271 4.503762,0.91276 0.725197,0.11 1.888016,0.30508 2.580714,0.43012 2.913318,0.53264 8.737454,1.05779 14.504072,1.30787 2.808288,0.12253 3.385949,0.085 3.385949,-0.21757 0,-0.05 0.34009,-0.60266 0.757708,-1.22534 0.417618,-0.62518 0.985271,-1.51293 1.26285,-1.97555 0.277579,-0.46264 0.802725,-1.32038 1.170327,-1.90803 0.437634,-0.70521 0.625178,-1.10782 0.547661,-1.18784 -0.07252,-0.0725 -1.200339,-0.11 -2.918316,-0.0975 -3.018347,0.0225 -7.694664,-0.15005 -9.342622,-0.3501 -0.560167,-0.0675 -1.858027,-0.20756 -2.880807,-0.31259 -5.078923,-0.52015 -7.119497,-0.84523 -10.925563,-1.74299 -2.955824,-0.69519 -4.043637,-1.02529 -6.18423,-1.86802 -2.76577,-1.08781 -4.6463,-2.24813 -5.551555,-3.42095 -0.680191,-0.88275 -0.872745,-1.3904 -0.865248,-2.28815 0.01051,-1.08281 0.192554,-1.45791 1.868023,-3.81607 0.305092,-0.43012 0.727708,-1.03528 0.937767,-1.34537 l 0.382608,-0.56516 -0.04998,0.68519 c -0.04251,0.58516 0.007,0.80523 0.342601,1.50542 0.880241,1.84051 3.118366,3.31093 7.237021,4.75383 1.307867,0.45763 4.943883,1.39289 6.324269,1.62795 0.560168,0.0951 1.667973,0.28509 2.46069,0.42263 0.792729,0.13754 2.198117,0.33259 3.120877,0.43011 0.925259,0.10008 2.113092,0.23007 2.640737,0.29009 2.953326,0.33759 7.021971,0.49513 11.805811,0.45763 4.776334,-0.0375 4.966394,-0.0475 5.103924,-0.27259 0.71521,-1.19033 2.8358,-5.47902 2.8408,-5.7441 v -0.3351 l -0.68769,0.065 c -5.431518,0.50764 -11.268161,0.51264 -16.359586,0.007 -1.022791,-0.10008 -2.493201,-0.23758 -3.265914,-0.30009 -0.772713,-0.0625 -2.1506,-0.26007 -3.060854,-0.43262 -0.910265,-0.17255 -1.898035,-0.36011 -2.195618,-0.41261 -2.690752,-0.48264 -6.404296,-1.64547 -8.344838,-2.61074 -1.760495,-0.87524 -3.050858,-2.10809 -3.303423,-3.15338 -0.320086,-1.33287 0.385107,-2.41068 2.675747,-4.08115 0.315087,-0.23006 0.902756,-0.67769 1.305368,-0.99278 0.402612,-0.31759 0.750211,-0.55766 0.772714,-0.53514 0.02254,0.0225 -0.03503,0.25506 -0.130032,0.51514 -0.207559,0.58517 -0.212557,0.7277 -0.05255,1.47792 0.155045,0.72769 0.687688,1.37787 1.682967,2.05807 1.170327,0.80022 2.335657,1.29286 5.153941,2.18062 2.418183,0.7627 5.40402,1.22784 10.865546,1.69047 2.25814,0.19255 10.007813,0.19505 12.128402,0.007 0.85774,-0.0775 2.37066,-0.20256 3.36093,-0.28258 0.99028,-0.0775 1.87553,-0.20256 1.96556,-0.27258 0.14503,-0.11503 0.3701,-0.56767 0.91025,-1.82052 0.085,-0.19755 0.26757,-0.60266 0.40261,-0.90024 0.66519,-1.44791 1.12283,-2.79079 0.99528,-2.91832 -0.0951,-0.0951 -0.68769,0.007 -2.14309,0.36759 -1.10532,0.27509 -2.55072,0.55517 -3.21091,0.62519 -3.806054,0.4026 -4.886358,0.48764 -6.814404,0.54514 -2.1531,0.0625 -5.761603,-0.0775 -7.41457,-0.29258 -0.495152,-0.0625 -1.495428,-0.17754 -2.220625,-0.25256 -0.725209,-0.075 -1.510429,-0.18506 -1.740492,-0.24508 -0.230062,-0.06 -1.225341,-0.30008 -2.208124,-0.53514 -2.188109,-0.52015 -3.470963,-1.00779 -4.576281,-1.7355 -1.250343,-0.82772 -1.662963,-1.54542 -1.380374,-2.40316 0.380097,-1.15282 2.430678,-2.32315 5.824124,-3.31843 0.330094,-0.0975 0.707692,-0.22257 0.840234,-0.28008 0.132542,-0.0576 0.402612,-0.13254 0.600164,-0.16755 l 0.360105,-0.065 -0.360105,0.17005 c -0.197552,0.0925 -0.415107,0.17253 -0.482628,0.17504 -0.0675,0 -0.385107,0.23506 -0.702694,0.51514 -0.54766,0.48264 -0.580171,0.54515 -0.590167,1.12782 -0.0047,0.38761 0.06504,0.73021 0.192553,0.92275 0.625166,0.95527 3.013338,1.87803 6.089215,2.35316 1.480405,0.23007 4.811341,0.48764 6.28175,0.48764 2.280644,0 6.346779,-0.40511 8.409859,-0.83523 0.73019,-0.15254 2.64323,-0.80523 3.20089,-1.0903 1.22034,-0.62518 1.76549,-1.49293 1.4379,-2.28565 -0.19254,-0.46513 -1.04778,-1.16782 -1.54043,-1.26786 -0.21006,-0.0425 -0.41011,-0.12252 -0.44512,-0.18004 -0.14755,-0.23756 0.23756,-0.13253 3.13087,0.86525 1.92804,0.66518 1.90554,0.66268 2.05808,0.33009 0.22006,-0.48014 1.00278,-2.8383 1.00278,-3.01585 0,-0.055 0.10253,-0.32509 0.22756,-0.60267 0.12504,-0.27758 0.26258,-0.69269 0.30759,-0.92275 0.045,-0.23008 0.13003,-0.52766 0.18756,-0.66019 0.19505,-0.43762 0.49263,-1.4229 0.90775,-3.00084 0.22506,-0.85774 0.68519,-2.58822 1.02028,-3.84108 0.33759,-1.25535 0.66019,-2.55071 0.72271,-2.8808 0.17504,-0.94777 0.3726,-1.86553 0.55766,-2.58073 0.0951,-0.3626 0.24256,-1.12031 0.33259,-1.68047 0.0875,-0.56015 0.29507,-1.64296 0.45763,-2.40068 0.16504,-0.7602 0.33759,-1.8005 0.38511,-2.31314 0.0475,-0.51264 0.12503,-0.95527 0.17254,-0.98527 0.0475,-0.03 0.25757,1.0928 0.46763,2.49319 0.52014,3.47097 0.67769,7.58713 0.50264,13.08867 -0.0701,2.19312 -0.17755,4.31121 -0.23756,4.70631 -0.26758,1.773 -0.35761,2.54072 -0.54265,4.6238 -0.24257,2.75078 -0.50514,4.77884 -0.72521,5.64409 -0.0925,0.36259 -0.38261,1.57794 -0.64268,2.70075 -1.34288,5.78413 -3.29342,11.67828 -5.13144,15.49684 -0.22505,0.46514 -0.40761,0.88276 -0.40761,0.92777 0,0.08 -1.01528,2.20812 -2.64325,5.54905 -0.45011,0.92526 -1.01277,2.08559 -1.24784,2.58072 -0.23506,0.49514 -0.75271,1.44041 -1.14533,2.10059 -0.3926,0.66019 -0.7202,1.25035 -0.7202,1.31038 -0.005,0.15503 -1.71547,3.05084 -2.55571,4.3237 -0.3876,0.59017 -0.81773,1.29286 -0.95276,1.56043 -0.13504,0.27008 -0.60517,0.97278 -1.04279,1.56045 -0.43762,0.59015 -0.95777,1.32537 -1.155322,1.63545 -0.600175,0.93776 -2.093087,2.89831 -3.96361,5.20397 -0.595177,0.73269 -1.207848,1.49541 -1.360382,1.69296 -1.365392,1.758 -5.766629,6.30678 -8.602419,8.8925 -1.652967,1.50792 -5.103926,4.3112 -6.091707,4.94887 -0.175049,0.11257 -0.720199,0.48514 -1.212835,0.82524 -1.020292,0.7077 -3.438464,2.1756 -4.763836,2.89581 -1.477918,0.80023 -3.183388,1.66546 -3.430967,1.74049 -0.127532,0.0375 -0.800214,0.32009 -1.492912,0.62768 -1.432901,0.63516 -5.12393,1.88553 -6.406795,2.16809 -3.41846,0.75773 -4.686311,0.89525 -7.999737,0.88026 -1.487919,-0.007 -3.220905,-0.085 -3.85608,-0.17257 z"
     inkscape:export-filename="international.png"
     inkscape:export-xdpi="264.87381"
     inkscape:export-ydpi="264.87381"
     style="stroke-width:0.25007" />
  <g
     id="g1"
     inkscape:groupmode="layer"
     inkscape:label="Image" />
  <g
     id="g6"
     transform="matrix(1.124077,0,0,1.124077,-7.2260384,59.195866)">
    <text
       xml:space="preserve"
       id="text1"
       style="font-stretch:condensed;font-size:80px;font-family:Impact;-inkscape-font-specification:'Impact Condensed';text-align:start;letter-spacing:-1.46533px;writing-mode:lr-tb;direction:ltr;white-space:pre;shape-inside:url(#rect2);fill:#074cae;stroke-width:7.55906;stroke-opacity:0.2;paint-order:markers fill stroke"
       transform="matrix(0.85987196,0,0,0.85987196,11.539334,112.28791)"><tspan
         x="167.99219"
         y="301.1276"
         id="tspan2"><tspan
   style="fill:#ffffff"
   id="tspan1">INTER</tspan>LINUX</tspan></text>
  </g>
</svg>
