<?xml version="1.0" encoding="UTF-8" standalone="no"?>
<svg
   id="svg1"
   version="1.1"
   viewBox="0 0 500.16 500.16"
   sodipodi:docname="international.svg"
   inkscape:version="1.4.2 (f4327f4, 2025-05-13)"
   inkscape:export-filename="school-logo.png"
   inkscape:export-xdpi="96"
   inkscape:export-ydpi="96"
   xmlns:inkscape="http://www.inkscape.org/namespaces/inkscape"
   xmlns:sodipodi="http://sodipodi.sourceforge.net/DTD/sodipodi-0.dtd"
   xmlns="http://www.w3.org/2000/svg"
   xmlns:svg="http://www.w3.org/2000/svg">
  <!-- Generator: Adobe Illustrator 29.7.1, SVG Export Plug-In . SVG Version: 2.1.1 Build 8)  -->
  <defs
     id="defs1">
    <rect
       x="167.99159"
       y="221.04157"
       width="382.14719"
       height="100.25349"
       id="rect2" />
    <style
       id="style1">
      .st0 {
        fill: #fff;
      }

      .st1 {
        fill: #074cae;
      }
    </style>
  </defs>
  <sodipodi:namedview
     id="namedview1"
     bordercolor="#000000"
     borderopacity="0.25"
     inkscape:current-layer="svg1"
     inkscape:cx="420.75957"
     inkscape:cy="410.75637"
     inkscape:deskcolor="#d1d1d1"
     inkscape:pagecheckerboard="0"
     inkscape:pageopacity="0.0"
     inkscape:showpageshadow="2"
     inkscape:window-height="991"
     inkscape:window-maximized="1"
     inkscape:window-width="1920"
     inkscape:window-x="-9"
     inkscape:window-y="-9"
     inkscape:zoom="0.79974413"
     pagecolor="#ffffff" />
  <rect
     style="fill:#074cae;fill-opacity:1;stroke-width:2.98353;stroke-opacity:0.2;paint-order:markers fill stroke"
     id="rect1"
     width="141.60809"
     height="149.03766"
     x="23.757599"
     y="329.47247"
     ry="5.3240838" />
  <path
     id="path1"
     class="st0"
     d="m 66.98642,443.9954 c -0.543923,-0.075 -1.261303,-0.20986 -1.593223,-0.30194 -0.331924,-0.0921 -0.882272,-0.23342 -1.220618,-0.31479 -0.599601,-0.14561 -1.000047,-0.28909 -1.850196,-0.67027 -0.226992,-0.10064 -0.53964,-0.21414 -0.695968,-0.25269 -0.599597,-0.14561 -0.327638,-0.22271 1.008616,-0.29123 1.676742,-0.0835 3.075096,-0.32764 5.443521,-0.95294 2.25921,-0.59532 4.270016,-1.38764 6.837593,-2.69606 2.25707,-1.15209 2.67251,-1.40264 2.67251,-1.61678 0,-0.0878 -0.22485,-0.42401 -0.49682,-0.74522 -0.42186,-0.49467 -0.8223,-1.0493 -1.18849,-1.64462 -0.0471,-0.075 0.20986,0.0685 0.56962,0.31907 0.35976,0.25055 0.7752,0.52037 0.92296,0.59961 1.63605,0.88012 1.51827,0.83944 1.84163,0.63814 1.45832,-0.91225 3.39203,-2.28705 3.39203,-2.41339 0,-0.12635 -0.30195,-0.24413 -1.59323,-0.59104 -0.67883,-0.18416 -1.55682,-0.46469 -1.95298,-0.62529 -0.39617,-0.16061 -0.83516,-0.3255 -0.97436,-0.36619 -0.13919,-0.0407 -0.78804,-0.31265 -1.43904,-0.60603 -2.2742,-1.0236 -3.7989,-2.22709 -4.428478,-3.4991 -0.344771,-0.6981 -1.327689,-3.43914 -1.398357,-3.90811 l -0.04711,-0.30837 0.229132,0.30837 c 0.633864,0.85015 2.267776,2.09218 3.608313,2.74317 0.88227,0.42829 3.52266,1.47545 4.09014,1.62107 0.25483,0.0664 0.64671,0.1863 0.8737,0.26768 1.16922,0.41972 5.22295,1.34053 6.78834,1.54183 l 0.51608,0.0664 1.33412,-1.22704 c 2.61468,-2.40268 3.37703,-3.17146 3.31493,-3.33635 -0.045,-0.11778 -0.41329,-0.20129 -1.48401,-0.32978 -0.78162,-0.0942 -1.65533,-0.21628 -1.938,-0.26982 -0.28266,-0.0535 -0.81588,-0.12634 -1.18207,-0.16061 -0.36832,-0.0343 -0.80732,-0.10493 -0.97649,-0.15418 -0.16917,-0.0493 -0.67883,-0.15847 -1.13067,-0.24198 -0.45185,-0.0835 -1.12426,-0.22485 -1.49044,-0.31265 -0.36833,-0.0899 -1.08571,-0.25055 -1.59323,-0.35762 -1.25916,-0.26768 -4.69402,-1.29343 -5.55273,-1.65747 -0.1135,-0.0471 -0.48611,-0.20129 -0.82659,-0.34049 -0.99363,-0.40687 -2.854533,-1.36837 -3.293524,-1.70029 -1.458315,-1.10927 -2.055776,-1.75598 -2.334161,-2.52689 -0.359762,-1.00219 -0.383317,-1.19278 -0.383317,-3.27211 0,-2.07933 0.07281,-2.50333 0.265538,-1.89731 0.07495,0.23342 0.325499,0.62315 0.736652,1.13924 0.554631,0.69597 2.402688,2.00866 3.574052,2.53974 1.05572,0.47754 1.51613,0.67669 2.31275,1.00219 1.69601,0.69382 5.22081,1.69816 7.31727,2.08361 0.64029,0.11778 1.65104,0.30623 2.24422,0.41758 1.84163,0.34477 6.47355,0.94652 8.73062,1.13282 l 1.58465,0.13063 0.16275,-0.23342 c 0.0899,-0.12848 0.48825,-0.61887 0.88442,-1.08999 0.67455,-0.80303 1.79666,-2.21852 2.80313,-3.53978 0.241985,-0.31694 0.426155,-0.64458 0.411165,-0.73023 -0.0236,-0.12635 -0.33407,-0.16918 -1.672465,-0.22914 -2.25707,-0.10279 -5.25508,-0.35547 -7.04317,-0.59103 -0.82017,-0.10921 -2.06863,-0.26982 -2.7753,-0.3619 -1.14567,-0.14562 -2.00652,-0.29552 -3.90811,-0.6767 -0.31051,-0.0621 -0.79661,-0.1606 -1.07928,-0.21628 -0.4497,-0.0899 -1.59109,-0.3512 -3.13506,-0.71738 -0.40473,-0.0964 -1.05144,-0.29766 -3.13506,-0.97864 -0.28267,-0.0921 -0.56105,-0.20129 -0.61673,-0.24198 -0.0557,-0.0407 -0.28695,-0.13276 -0.51394,-0.20343 -0.61888,-0.19487 -2.79457,-1.26987 -3.518375,-1.73671 -1.010755,-0.65313 -2.00652,-1.69815 -2.381271,-2.49905 -0.511803,-1.09641 -0.488248,-1.30627 0.456124,-4.20577 0.250548,-0.76877 0.456125,-1.499 0.456125,-1.61892 0,-0.11992 0.04711,-0.22057 0.102788,-0.22057 0.05568,0 0.102788,0.13919 0.102788,0.31051 0,0.17132 0.03855,0.38974 0.0878,0.48825 0.04925,0.0985 0.1756,0.35976 0.282671,0.58032 0.385456,0.79662 1.57609,1.90374 2.91877,2.71534 0.74522,0.4497 2.52903,1.27201 3.49696,1.61036 1.61892,0.56748 3.5355,1.16493 4.42206,1.37908 1.2977,0.31479 2.84382,0.62744 3.85672,0.78162 0.62101,0.0942 1.61677,0.26125 2.20995,0.36833 2.49477,0.45612 7.48217,0.90582 12.420315,1.11997 2.40483,0.10493 2.8995,0.0728 2.8995,-0.18631 0,-0.0428 0.29123,-0.51608 0.64885,-1.0493 0.35762,-0.53536 0.84372,-1.29557 1.08142,-1.69173 0.2377,-0.39617 0.6874,-1.13068 1.00219,-1.63391 0.37476,-0.60389 0.53536,-0.94866 0.46898,-1.01718 -0.0621,-0.0621 -1.02789,-0.0942 -2.49905,-0.0835 -2.58471,0.0193 -6.589195,-0.12849 -8.000395,-0.2998 -0.47969,-0.0578 -1.59109,-0.17774 -2.46693,-0.26768 -4.34925,-0.44542 -6.09666,-0.7238 -9.35592,-1.49258 -2.53117,-0.59531 -3.4627,-0.87799 -5.29576,-1.59965 -2.36842,-0.93152 -3.97878,-1.92514 -4.75398,-2.92947 -0.58247,-0.75593 -0.74736,-1.19064 -0.74094,-1.95942 0.009,-0.92724 0.16489,-1.24845 1.59965,-3.26782 0.26126,-0.36833 0.62316,-0.88655 0.80304,-1.15209 l 0.32764,-0.48396 -0.0428,0.58675 c -0.0364,0.50109 0.006,0.68954 0.29338,1.28914 0.75378,1.57609 2.67036,2.83526 6.1973,4.07086 1.11997,0.39188 4.23361,1.19278 5.41568,1.39407 0.47969,0.0814 1.42834,0.24413 2.10717,0.36191 0.67884,0.11778 1.88232,0.28481 2.67251,0.36832 0.79233,0.0857 1.80951,0.19701 2.26135,0.24841 2.52903,0.28909 6.013145,0.424 10.109705,0.39188 4.09014,-0.0321 4.25289,-0.0407 4.37066,-0.23342 0.61246,-1.01932 2.42839,-4.69187 2.43267,-4.91887 v -0.28695 l -0.58889,0.0557 c -4.65119,0.43471 -9.6493,0.43899 -14.009255,0.006 -0.87585,-0.0857 -2.13501,-0.20344 -2.79671,-0.25697 -0.6617,-0.0535 -1.84163,-0.22271 -2.62111,-0.37047 -0.77949,-0.14776 -1.62535,-0.30837 -1.88018,-0.35333 -2.30418,-0.4133 -5.48421,-1.40907 -7.14596,-2.23566 -1.50757,-0.7495 -2.61255,-1.80523 -2.82883,-2.70035 -0.2741,-1.14138 0.32978,-2.06434 2.29133,-3.49482 0.26982,-0.19701 0.77306,-0.58033 1.11783,-0.85015 0.34477,-0.27196 0.64243,-0.47754 0.6617,-0.45826 0.0193,0.0193 -0.03,0.21842 -0.11135,0.44113 -0.17774,0.5011 -0.18202,0.62316 -0.045,1.26559 0.13277,0.62315 0.58889,1.17992 1.44118,1.7624 1.00219,0.68525 2.0001,1.10712 4.41349,1.86733 2.07077,0.65313 4.62764,1.05144 9.304525,1.44761 1.93372,0.16489 8.57002,0.16703 10.38595,0.006 0.73451,-0.0664 2.03008,-0.17346 2.87808,-0.24198 0.84801,-0.0664 1.60608,-0.17346 1.68317,-0.23342 0.1242,-0.0985 0.31693,-0.48611 0.77948,-1.55897 0.0728,-0.16917 0.22913,-0.51608 0.34477,-0.77091 0.56962,-1.23989 0.96151,-2.38984 0.85229,-2.49905 -0.0814,-0.0814 -0.58889,0.006 -1.8352,0.31478 -0.94652,0.23557 -2.18427,0.47541 -2.74961,0.53537 -3.25925,0.34476 -4.18435,0.41758 -5.8354,0.46682 -1.84377,0.0535 -4.93385,-0.0664 -6.34934,-0.25054 -0.424015,-0.0535 -1.280585,-0.15204 -1.901595,-0.21628 -0.62102,-0.0642 -1.29343,-0.15847 -1.49044,-0.20987 -0.19701,-0.0514 -1.0493,-0.25697 -1.89089,-0.45826 -1.87375,-0.44542 -2.9723,-0.863 -3.91882,-1.48616 -1.07071,-0.70881 -1.42405,-1.3234 -1.18206,-2.05791 0.32549,-0.9872 2.08147,-1.98939 4.98739,-2.84168 0.28267,-0.0835 0.60602,-0.19059 0.71952,-0.23984 0.1135,-0.0493 0.34477,-0.1135 0.51394,-0.14348 l 0.30837,-0.0557 -0.30837,0.14562 c -0.16917,0.0792 -0.35547,0.14775 -0.41329,0.1499 -0.0578,0 -0.32978,0.20129 -0.60174,0.44113 -0.46898,0.4133 -0.49682,0.46683 -0.50538,0.96579 -0.004,0.33192 0.0557,0.6253 0.16489,0.79018 0.53535,0.81803 2.58042,1.60822 5.214395,2.01509 1.26772,0.19701 4.12011,0.41758 5.37927,0.41758 1.95299,0 5.43496,-0.34691 7.20164,-0.71524 0.62529,-0.13062 2.26349,-0.68954 2.74103,-0.93366 1.04502,-0.53536 1.51185,-1.27844 1.23132,-1.95727 -0.16488,-0.39831 -0.89725,-1.00005 -1.31912,-1.08571 -0.17988,-0.0364 -0.35119,-0.10492 -0.38117,-0.15418 -0.12635,-0.20343 0.20343,-0.11349 2.68107,0.74094 1.65104,0.56962 1.63177,0.56748 1.7624,0.28267 0.18844,-0.41116 0.85871,-2.43053 0.85871,-2.58257 0,-0.0471 0.0878,-0.27839 0.19487,-0.51609 0.10707,-0.2377 0.22485,-0.59317 0.2634,-0.79018 0.0385,-0.19702 0.11135,-0.45185 0.16061,-0.56534 0.16703,-0.37475 0.42186,-1.21848 0.77734,-2.56972 0.19272,-0.73451 0.58675,-2.21638 0.8737,-3.28924 0.28909,-1.075 0.56534,-2.18426 0.61888,-2.46693 0.14989,-0.8116 0.31907,-1.59751 0.47754,-2.20996 0.0814,-0.31051 0.20771,-0.95936 0.28481,-1.43904 0.0749,-0.47968 0.25268,-1.40692 0.39188,-2.05578 0.14133,-0.65099 0.28909,-1.54183 0.32978,-1.98082 0.0407,-0.43899 0.10707,-0.81803 0.14776,-0.84372 0.0407,-0.0257 0.22056,0.9358 0.40044,2.135 0.44542,2.97231 0.58033,6.49711 0.43043,11.20826 -0.06,1.87804 -0.15204,3.69183 -0.20343,4.03017 -0.22914,1.51828 -0.30623,2.1757 -0.46469,3.95951 -0.20772,2.35558 -0.43257,4.09228 -0.62102,4.83322 -0.0792,0.3105 -0.32764,1.35124 -0.55035,2.31274 -1.14995,4.95314 -2.82026,10.0005 -4.39422,13.27046 -0.19272,0.39831 -0.34905,0.75593 -0.34905,0.79448 0,0.0685 -0.86942,1.89088 -2.2635,4.75183 -0.38545,0.79233 -0.86727,1.78596 -1.06857,2.20996 -0.20129,0.424 -0.64457,1.23347 -0.98078,1.7988 -0.3362,0.56534 -0.61673,1.07072 -0.61673,1.12212 -0.004,0.13276 -1.46902,2.61254 -2.18854,3.70253 -0.33192,0.50538 -0.70025,1.10712 -0.81588,1.33625 -0.11564,0.23128 -0.51823,0.83302 -0.89298,1.33626 -0.37475,0.50537 -0.82017,1.13496 -0.98934,1.40049 -0.51395,0.80304 -1.79238,2.48192 -3.39417,4.45633 -0.50967,0.62743 -1.03432,1.28057 -1.16494,1.44974 -1.16923,1.50543 -4.938155,5.4007 -7.366535,7.61494 -1.41549,1.29128 -4.37066,3.69182 -5.21653,4.23788 -0.1499,0.0964 -0.61673,0.41544 -1.03859,0.70668 -0.87371,0.60603 -2.94447,1.86304 -4.07943,2.47978 -1.26559,0.68526 -2.72604,1.42619 -2.93805,1.49044 -0.10921,0.0321 -0.68525,0.2741 -1.27843,0.5375 -1.22704,0.54391 -4.38779,1.61464 -5.48635,1.85661 -2.92734,0.64887 -4.013042,0.76663 -6.850438,0.75379 -1.274154,-0.006 -2.758167,-0.0728 -3.302089,-0.14777 z"
     inkscape:export-filename="international.png"
     inkscape:export-xdpi="264.87381"
     inkscape:export-ydpi="264.87381"
     style="stroke-width:0.214143" />
  <g
     id="g1"
     inkscape:groupmode="layer"
     inkscape:label="Image" />
  <g
     id="g6"
     transform="translate(21.256799,133.16759)">
    <text
       xml:space="preserve"
       id="text1"
       style="font-stretch:condensed;font-size:80px;font-family:Impact;-inkscape-font-specification:'Impact Condensed';text-align:start;letter-spacing:-1.46533px;writing-mode:lr-tb;direction:ltr;white-space:pre;shape-inside:url(#rect2);fill:#074cae;stroke-width:7.55906;stroke-opacity:0.2;paint-order:markers fill stroke"
       transform="matrix(0.85987196,0,0,0.85987196,9.0167169,37.095314)"><tspan
         x="167.99219"
         y="301.1276"
         id="tspan1">INTERLINUX</tspan></text>
    <text
       xml:space="preserve"
       style="font-stretch:condensed;font-size:22.213px;line-height:0.7;font-family:Impact;-inkscape-font-specification:'Impact Condensed';text-align:start;letter-spacing:-0.820949px;word-spacing:7.6801px;writing-mode:lr-tb;direction:ltr;text-anchor:start;fill:#074cae;stroke-width:5.24719;stroke-opacity:0.2;paint-order:markers fill stroke"
       x="196.8786"
       y="249.09918"
       id="text3"
       transform="scale(0.77987572,1.2822556)"><tspan
         sodipodi:role="line"
         x="196.8786"
         y="249.09918"
         style="font-style:normal;font-variant:normal;font-weight:300;font-stretch:normal;font-size:22.213px;line-height:0.7;font-family:'Malgun Gothic';-inkscape-font-specification:'Malgun Gothic Light';letter-spacing:-0.820949px;word-spacing:7.6801px;stroke-width:5.24719"
         id="tspan5">AN OPERATING SYSTEM FOR </tspan><tspan
         sodipodi:role="line"
         x="196.8786"
         y="266.34262"
         style="font-style:normal;font-variant:normal;font-weight:300;font-stretch:normal;font-size:22.213px;line-height:0.7;font-family:'Malgun Gothic';-inkscape-font-specification:'Malgun Gothic Light';letter-spacing:-0.820949px;word-spacing:7.6801px;stroke-width:5.24719"
         id="tspan4"
         dy="0 0 0 0 0 0 0 0 0 0 0 0 0 0 0 0">ENGLISH LEARNERS</tspan></text>
  </g>
</svg>
