<?xml version="1.0" encoding="UTF-8" standalone="no"?>
<svg
   id="svg1"
   version="1.1"
   viewBox="0 0 500.16 500.16"
   sodipodi:docname="international.svg"
   inkscape:version="1.4.2 (ebf0e940d0, 2025-05-08)"
   xmlns:inkscape="http://www.inkscape.org/namespaces/inkscape"
   xmlns:sodipodi="http://sodipodi.sourceforge.net/DTD/sodipodi-0.dtd"
   xmlns="http://www.w3.org/2000/svg"
   xmlns:svg="http://www.w3.org/2000/svg">
  <!-- Generator: Adobe Illustrator 29.7.1, SVG Export Plug-In . SVG Version: 2.1.1 Build 8)  -->
  <defs
     id="defs1">
    <style
       id="style1">
      .st0 {
        fill: #fff;
      }

      .st1 {
        fill: #074cae;
      }
    </style>
  </defs>
  <sodipodi:namedview
     id="namedview1"
     bordercolor="#000000"
     borderopacity="0.25"
     inkscape:current-layer="svg1"
     inkscape:cx="325.10398"
     inkscape:cy="256.33198"
     inkscape:deskcolor="#d1d1d1"
     inkscape:pagecheckerboard="0"
     inkscape:pageopacity="0.0"
     inkscape:showpageshadow="2"
     inkscape:window-height="699"
     inkscape:window-maximized="1"
     inkscape:window-width="1366"
     inkscape:window-x="0"
     inkscape:window-y="0"
     inkscape:zoom="0.79974413"
     pagecolor="#ffffff" />
  <rect
     style="fill:#074cae;fill-opacity:1;stroke-width:10.0125;stroke-opacity:0.2;paint-order:markers fill stroke"
     id="rect1"
     width="475.22687"
     height="500.15997"
     x="12.466561"
     y="2.3996587e-05"
     ry="17.867254" />
  <path
     id="path1"
     class="st0"
     d="m 157.53948,384.33095 c -1.82538,-0.25152 -4.23285,-0.70427 -5.34675,-1.01329 -1.1139,-0.30904 -2.96083,-0.78333 -4.09631,-1.05642 -2.01221,-0.48868 -3.3561,-0.97017 -6.20912,-2.24938 -0.76179,-0.33776 -1.811,-0.71864 -2.33562,-0.848 -2.01221,-0.48868 -1.09954,-0.7474 3.38483,-0.97737 5.62705,-0.28027 10.31982,-1.09952 18.26808,-3.19798 7.58175,-1.99787 14.32988,-4.65684 22.94649,-9.04782 7.57457,-3.86633 8.96874,-4.70715 8.96874,-5.42578 0,-0.29465 -0.75457,-1.42294 -1.66727,-2.50091 -1.41573,-1.66008 -2.75959,-3.52139 -3.9885,-5.51923 -0.15808,-0.25152 0.70429,0.22997 1.91161,1.07081 1.20734,0.84082 2.60151,1.74631 3.09738,2.0122 5.49049,2.95365 5.09523,2.81712 6.18039,2.14157 4.89401,-3.06145 11.38342,-7.67517 11.38342,-8.09918 0,-0.424 -1.01331,-0.81926 -5.34677,-1.98348 -2.27812,-0.61802 -5.22458,-1.55946 -6.55408,-2.09844 -1.3295,-0.539 -2.80273,-1.09235 -3.26985,-1.22889 -0.46713,-0.13655 -2.64463,-1.04924 -4.82933,-2.0338 -7.63206,-3.43513 -12.74886,-7.47394 -14.86167,-11.74272 -1.15703,-2.34281 -4.45562,-11.5415 -4.69278,-13.11537 l -0.15811,-1.03485 0.76896,1.03485 c 2.12719,2.85304 7.61048,7.0212 12.10924,9.20591 2.96084,1.43731 11.8218,4.95149 13.72622,5.44018 0.85518,0.22278 2.17031,0.62521 2.93207,0.8983 3.92383,1.40857 17.52789,4.49875 22.7812,5.17429 l 1.73195,0.22279 4.47719,-4.11788 c 8.77471,-8.06323 11.3331,-10.6432 11.1247,-11.19656 -0.15092,-0.39524 -1.38699,-0.67551 -4.98025,-1.10671 -2.62307,-0.31622 -5.55515,-0.72583 -6.50377,-0.9055 -0.94862,-0.17966 -2.73805,-0.42401 -3.96697,-0.53899 -1.23605,-0.1149 -2.70931,-0.35214 -3.27702,-0.51741 -0.56774,-0.16531 -2.27813,-0.53181 -3.79449,-0.81209 -1.51634,-0.28028 -3.77289,-0.75459 -5.0018,-1.04923 -1.23606,-0.30183 -3.64354,-0.84082 -5.34675,-1.20014 -4.22565,-0.89832 -15.75279,-4.34066 -18.63458,-5.56236 -0.3809,-0.15809 -1.63133,-0.67553 -2.77399,-1.14265 -3.33452,-1.36544 -9.57959,-4.59217 -11.05282,-5.70608 -4.89401,-3.7226 -6.89905,-5.89294 -7.83328,-8.48006 -1.20735,-3.36329 -1.28639,-4.00287 -1.28639,-10.98098 0,-6.97809 0.24434,-8.401 0.89112,-6.36723 0.25154,0.78334 1.09235,2.09127 2.47216,3.82323 1.8613,2.33561 8.06325,6.74091 11.99425,8.52318 3.54295,1.60258 5.08807,2.27093 7.76144,3.36326 5.69168,2.32844 17.52067,5.6989 24.55625,6.99248 2.14878,0.39524 5.54079,1.02767 7.53145,1.40136 6.18038,1.15703 21.72477,3.17644 29.29935,3.80166 l 5.318,0.43837 0.54616,-0.78331 c 0.30185,-0.4312 1.63854,-2.07691 2.96804,-3.65795 2.26375,-2.69491 6.02947,-7.44519 9.40714,-11.87927 0.81206,-1.06361 1.4301,-2.16314 1.37979,-2.45058 -0.079,-0.42402 -1.1211,-0.56774 -5.61265,-0.76897 -7.57457,-0.34494 -17.63565,-1.19294 -23.63639,-1.98347 -2.75244,-0.3665 -6.94217,-0.90551 -9.31371,-1.21452 -3.84477,-0.48868 -6.73374,-0.99175 -13.11534,-2.27093 -1.04205,-0.20841 -2.67339,-0.53899 -3.622,-0.72584 -1.50917,-0.30184 -5.33958,-1.17858 -10.52103,-2.40747 -1.35825,-0.32339 -3.52856,-0.99892 -10.52103,-3.28424 -0.94862,-0.30902 -1.88287,-0.67553 -2.06972,-0.81207 -0.18683,-0.13652 -0.96299,-0.44556 -1.72475,-0.68272 -2.0769,-0.65397 -9.37838,-4.26159 -11.80742,-5.82824 -3.39202,-2.1919 -6.73374,-5.6989 -7.99137,-8.38664 -1.7176,-3.67949 -1.63854,-4.38378 1.53071,-14.11429 0.84082,-2.57995 1.53072,-5.03056 1.53072,-5.43299 0,-0.40245 0.15812,-0.7402 0.34495,-0.7402 0.18686,0 0.34496,0.46711 0.34496,1.04204 0,0.57492 0.12934,1.30793 0.29465,1.63852 0.16528,0.33059 0.58929,1.20733 0.94862,1.94753 1.29356,2.67338 5.28924,6.38879 9.79519,9.11249 2.50091,1.50917 8.48725,4.26877 11.73555,5.40423 5.43298,1.90442 11.86489,3.90945 14.84012,4.62811 4.35501,1.05643 9.54366,2.10565 12.94288,2.62308 2.08408,0.3162 5.4258,0.87673 7.41646,1.23607 8.37226,1.53072 25.10962,3.03988 41.68167,3.75855 8.07045,0.35213 9.73053,0.24433 9.73053,-0.62522 0,-0.14374 0.97736,-1.73195 2.1775,-3.5214 1.20015,-1.79664 2.83149,-4.34784 3.62919,-5.67732 0.79771,-1.32952 2.30687,-3.79448 3.36328,-5.48331 1.25764,-2.0266 1.79662,-3.18362 1.57385,-3.41359 -0.20843,-0.2084 -3.44953,-0.31621 -8.38665,-0.28027 -8.67411,0.0646 -22.11284,-0.43119 -26.84875,-1.0061 -1.60978,-0.19405 -5.33956,-0.59648 -8.27886,-0.89832 -14.59576,-1.4948 -20.45994,-2.42902 -31.3978,-5.00899 -8.49444,-1.99784 -11.62056,-2.94646 -17.77219,-5.36831 -7.94828,-3.12613 -13.35254,-6.46065 -15.95404,-9.83112 -1.95472,-2.53684 -2.50807,-3.9957 -2.48652,-6.57566 0.0288,-3.11175 0.55334,-4.18971 5.36831,-10.96659 0.87675,-1.23607 2.09128,-2.9752 2.69494,-3.86633 l 1.09953,-1.62414 -0.14373,1.96908 c -0.12214,1.68166 0.0215,2.31406 0.98455,4.32628 2.52965,5.28927 8.96157,9.51494 20.79773,13.66153 3.75854,1.31512 14.2077,4.00287 18.17464,4.6784 1.60978,0.2731 4.7934,0.81927 7.07152,1.21453 2.27811,0.39527 6.31693,0.95581 8.96873,1.23608 2.65902,0.28746 6.0726,0.66116 7.58896,0.83363 8.48725,0.97018 20.17968,1.42292 33.92744,1.31513 13.72621,-0.1079 14.27238,-0.13654 14.66765,-0.78333 2.05535,-3.42077 8.14948,-15.74562 8.16386,-16.50738 v -0.96299 l -1.97629,0.18684 c -15.60907,1.45888 -32.38235,1.47324 -47.01406,0.0215 -2.93928,-0.28748 -7.16495,-0.68272 -9.38556,-0.86238 -2.22063,-0.17967 -6.18039,-0.7474 -8.79628,-1.24326 -2.61588,-0.49587 -5.45454,-1.03487 -6.30974,-1.18578 -7.73267,-1.38698 -18.40462,-4.72871 -23.98134,-7.5027 -5.05929,-2.51528 -8.76751,-6.05822 -9.49336,-9.06217 -0.91987,-3.8304 1.10671,-6.92779 7.68954,-11.72837 0.9055,-0.66114 2.59432,-1.94753 3.75135,-2.85303 1.15703,-0.91271 2.15595,-1.6026 2.22064,-1.5379 0.0646,0.0646 -0.10052,0.73301 -0.3737,1.4804 -0.59648,1.68164 -0.61086,2.09128 -0.15092,4.24722 0.44556,2.09127 1.97628,3.95976 4.83651,5.91449 3.36329,2.29968 6.7122,3.71543 14.81137,6.26663 6.94936,2.19187 15.53003,3.52857 31.22534,4.85806 6.48941,0.55338 28.76035,0.56056 34.85451,0.0215 2.46495,-0.22278 6.8128,-0.58211 9.65865,-0.81208 2.84585,-0.22277 5.38986,-0.58211 5.64858,-0.78332 0.41683,-0.33058 1.06361,-1.63133 2.6159,-5.23177 0.24433,-0.56775 0.76894,-1.73195 1.15702,-2.58715 1.9116,-4.16098 3.22673,-8.02012 2.86022,-8.38663 -0.27309,-0.2731 -1.97628,0.0215 -6.15882,1.05641 -3.17645,0.79052 -7.33024,1.5954 -9.22748,1.79664 -10.93784,1.15701 -14.04241,1.40135 -19.5832,1.56663 -6.18757,0.17968 -16.55768,-0.22277 -21.30795,-0.84083 -1.42294,-0.17965 -4.29754,-0.51024 -6.38161,-0.7258 -2.0841,-0.2156 -4.34065,-0.53181 -5.00181,-0.70429 -0.66115,-0.17247 -3.52139,-0.86237 -6.34568,-1.53791 -6.28818,-1.4948 -9.97485,-2.89616 -13.15127,-4.98743 -3.59326,-2.37873 -4.77904,-4.44126 -3.96696,-6.90622 1.09234,-3.31297 6.98528,-6.67626 16.73735,-9.53649 0.94861,-0.28027 2.03378,-0.6396 2.41466,-0.80488 0.38089,-0.1653 1.15704,-0.38089 1.72475,-0.48151 l 1.03487,-0.18683 -1.03487,0.48867 c -0.56771,0.2659 -1.19295,0.49588 -1.387,0.50306 -0.19403,0 -1.10671,0.67553 -2.01939,1.48043 -1.57385,1.38698 -1.66726,1.56664 -1.69601,3.24109 -0.0142,1.11392 0.18685,2.09848 0.55336,2.65182 1.79663,2.74525 8.65973,5.39707 17.49913,6.7625 4.2544,0.66115 13.82681,1.40137 18.05247,1.40137 6.55408,0 18.23932,-1.16421 24.16819,-2.4003 2.09845,-0.43837 7.59612,-2.31406 9.19872,-3.1333 3.50701,-1.79664 5.07365,-4.29035 4.13222,-6.56848 -0.55335,-1.33669 -3.01113,-3.35608 -4.42687,-3.64354 -0.60366,-0.12215 -1.17859,-0.35213 -1.27921,-0.51742 -0.42399,-0.68272 0.68274,-0.38089 8.9975,2.48652 5.54079,1.91161 5.47612,1.90442 5.91449,0.94861 0.6324,-1.37979 2.8818,-8.15666 2.8818,-8.66692 0,-0.15808 0.29464,-0.93423 0.65395,-1.73194 0.35933,-0.7977 0.75459,-1.99065 0.88395,-2.65182 0.12936,-0.66115 0.37369,-1.51634 0.53899,-1.89723 0.56054,-1.25763 1.41573,-4.08912 2.6087,-8.6238 0.64678,-2.46495 1.96909,-7.43802 2.93209,-11.03845 0.97018,-3.60763 1.89724,-7.33024 2.0769,-8.27883 0.50304,-2.72371 1.07078,-5.36113 1.60259,-7.41648 0.27307,-1.04203 0.69708,-3.21955 0.9558,-4.82932 0.25152,-1.60978 0.84799,-4.72153 1.31512,-6.89904 0.47431,-2.18468 0.97018,-5.17427 1.10673,-6.647503 0.13654,-1.473229 0.35932,-2.745231 0.49587,-2.831489 0.13654,-0.08641 0.7402,3.140512 1.34387,7.164932 1.49479,9.97485 1.94752,21.80384 1.44449,37.61413 -0.20123,6.30255 -0.51025,12.38953 -0.68273,13.52497 -0.76894,5.09524 -1.02767,7.3015 -1.55946,13.28785 -0.6971,7.90515 -1.45167,13.73339 -2.08407,16.21991 -0.26591,1.04204 -1.09955,4.53469 -1.84695,7.76143 -3.85914,16.62238 -9.46462,33.56093 -14.74669,44.53471 -0.64678,1.33669 -1.17138,2.53685 -1.17138,2.6662 0,0.22997 -2.91772,6.34567 -7.59614,15.94683 -1.29356,2.659 -2.91054,5.99355 -3.58607,7.41647 -0.67552,1.42292 -2.16314,4.13944 -3.29142,6.03667 -1.12827,1.89722 -2.0697,3.59324 -2.0697,3.76572 -0.0143,0.44556 -4.92994,8.76751 -7.34459,12.42544 -1.11392,1.69601 -2.35,3.71542 -2.73806,4.48438 -0.38808,0.77614 -1.73913,2.79556 -2.99679,4.48438 -1.25761,1.69601 -2.75242,3.80883 -3.32014,4.69997 -1.72478,2.69494 -6.01511,8.32914 -11.3906,14.9551 -1.71039,2.10564 -3.47109,4.2975 -3.90947,4.86525 -3.92382,5.05211 -16.57205,18.12436 -24.72154,25.55519 -4.75026,4.33346 -14.66763,12.38951 -17.50631,14.22207 -0.50304,0.3234 -2.06969,1.39418 -3.48545,2.37154 -2.93208,2.03379 -9.88143,6.25225 -13.69028,8.32198 -4.24721,2.29967 -9.14842,4.78619 -9.85986,5.00178 -0.36653,0.10791 -2.29968,0.91989 -4.29036,1.80383 -4.11784,1.82537 -14.72511,5.41861 -18.41179,6.23068 -9.82395,2.17751 -13.46751,2.57276 -22.98959,2.52964 -4.27597,-0.0216 -9.25623,-0.24432 -11.08159,-0.49585 z"
     inkscape:export-filename="international.png"
     inkscape:export-xdpi="264.87381"
     inkscape:export-ydpi="264.87381"
     style="stroke-width:0.718649" />
  <g
     id="g1"
     inkscape:groupmode="layer"
     inkscape:label="Image" />
</svg>
