<?xml version="1.0" encoding="UTF-8" standalone="no"?>
<svg
   id="svg1"
   version="1.1"
   viewBox="0 0 500.16 500.16"
   sodipodi:docname="international.svg"
   inkscape:version="1.4.2 (f4327f4, 2025-05-13)"
   xmlns:inkscape="http://www.inkscape.org/namespaces/inkscape"
   xmlns:sodipodi="http://sodipodi.sourceforge.net/DTD/sodipodi-0.dtd"
   xmlns="http://www.w3.org/2000/svg"
   xmlns:svg="http://www.w3.org/2000/svg">
  <!-- Generator: Adobe Illustrator 29.7.1, SVG Export Plug-In . SVG Version: 2.1.1 Build 8)  -->
  <defs
     id="defs1">
    <style
       id="style1">
      .st0 {
        fill: #fff;
      }

      .st1 {
        fill: #074cae;
      }
    </style>
  </defs>
  <sodipodi:namedview
     id="namedview1"
     bordercolor="#000000"
     borderopacity="0.25"
     inkscape:current-layer="svg1"
     inkscape:cx="1.7683326"
     inkscape:cy="249.77698"
     inkscape:deskcolor="#d1d1d1"
     inkscape:pagecheckerboard="0"
     inkscape:pageopacity="0.0"
     inkscape:showpageshadow="2"
     inkscape:window-height="991"
     inkscape:window-maximized="1"
     inkscape:window-width="1920"
     inkscape:window-x="-9"
     inkscape:window-y="-9"
     inkscape:zoom="1.131009"
     pagecolor="#ffffff" />
  <rect
     style="fill:#074cae;fill-opacity:1;stroke-width:8.42302;stroke-opacity:0.2;paint-order:markers fill stroke"
     id="rect1"
     width="399.78464"
     height="420.75961"
     x="50.187683"
     y="39.700195"
     ry="15.030828" />
  <path
     id="path1"
     class="st0"
     d="m 172.23028,363.01861 c -1.53559,-0.21159 -3.56088,-0.59247 -4.49795,-0.85243 -0.93708,-0.25996 -2.49081,-0.65898 -3.44602,-0.88871 -1.69278,-0.4111 -2.82331,-0.81616 -5.22343,-1.89229 -0.64084,-0.28414 -1.5235,-0.60456 -1.96484,-0.71338 -1.69277,-0.4111 -0.92498,-0.62875 2.8475,-0.82221 4.73374,-0.23578 8.68154,-0.92498 15.36802,-2.69031 6.37815,-1.68069 12.05501,-3.91757 19.30373,-7.61146 6.37211,-3.25256 7.54496,-3.9599 7.54496,-4.56446 0,-0.24787 -0.63479,-1.19704 -1.40259,-2.10388 -1.19099,-1.39655 -2.32152,-2.96237 -3.35533,-4.64305 -0.133,-0.2116 0.59247,0.19346 1.60814,0.9008 1.01567,0.70734 2.18852,1.46909 2.60567,1.69278 4.61887,2.48475 4.28636,2.36989 5.19925,1.8016 4.11709,-2.57545 9.5763,-6.45675 9.5763,-6.81344 0,-0.35669 -0.85244,-0.6892 -4.49796,-1.6686 -1.91647,-0.51992 -4.39518,-1.3119 -5.51362,-1.76532 -1.11845,-0.45343 -2.3578,-0.91894 -2.75077,-1.03381 -0.39297,-0.11487 -2.22479,-0.88266 -4.06267,-1.71092 -6.42047,-2.88981 -10.72497,-6.28746 -12.50238,-9.87857 -0.97335,-1.97088 -3.7483,-9.7093 -3.94781,-11.0333 l -0.133,-0.87057 0.64688,0.87057 c 1.78951,2.40012 6.40233,5.90659 10.18691,7.74447 2.4908,1.20913 9.94508,4.16544 11.54717,4.57655 0.71943,0.18741 1.82578,0.52597 2.46662,0.7557 3.30092,1.18495 14.74532,3.78457 19.16468,4.35286 l 1.457,0.18742 3.76644,-3.46415 c 7.38172,-6.78321 9.53397,-8.9536 9.35865,-9.41911 -0.12696,-0.33251 -1.16681,-0.56829 -4.18963,-0.93103 -2.20666,-0.26601 -4.67328,-0.61061 -5.47131,-0.76175 -0.79802,-0.15114 -2.30338,-0.35669 -3.33719,-0.45342 -1.03985,-0.0967 -2.27921,-0.29624 -2.75681,-0.43529 -0.47761,-0.13905 -1.91647,-0.44738 -3.1921,-0.68316 -1.27563,-0.23578 -3.17396,-0.63479 -4.20777,-0.88266 -1.03985,-0.25392 -3.06514,-0.70734 -4.49795,-1.00962 -3.55484,-0.75571 -13.25205,-3.65157 -15.67635,-4.67933 -0.32042,-0.133 -1.37236,-0.56829 -2.33362,-0.96126 -2.80517,-1.14867 -8.05884,-3.86316 -9.29819,-4.80023 -4.11708,-3.13165 -5.80382,-4.95743 -6.58975,-7.13386 -1.01567,-2.82936 -1.08217,-3.36742 -1.08217,-9.23774 0,-5.87032 0.20555,-7.06735 0.74966,-5.35644 0.2116,0.65898 0.91894,1.75928 2.0797,3.21628 1.56582,1.96484 6.78321,5.67081 10.09017,7.17013 2.9805,1.34818 4.28032,1.91043 6.5293,2.82936 4.78814,1.95879 14.73927,4.7942 20.65795,5.88241 1.80765,0.33251 4.66119,0.86453 6.33583,1.1789 5.19925,0.97335 18.27597,2.67218 24.64808,3.19815 l 4.47377,0.36878 0.45947,-0.65897 c 0.25392,-0.36274 1.37841,-1.7472 2.49685,-3.07724 1.90438,-2.26711 5.0723,-6.26328 7.91375,-9.99344 0.68315,-0.89476 1.20308,-1.81974 1.16076,-2.06156 -0.0665,-0.3567 -0.94312,-0.47761 -4.72165,-0.64689 -6.3721,-0.29019 -14.836,-1.00357 -19.88411,-1.66859 -2.31548,-0.30833 -5.84009,-0.76176 -7.83515,-1.02172 -3.23442,-0.4111 -5.66476,-0.8343 -11.03329,-1.91042 -0.87662,-0.17532 -2.24898,-0.45342 -3.04701,-0.61061 -1.26958,-0.25392 -4.49191,-0.99149 -8.85081,-2.02529 -1.14263,-0.27205 -2.96841,-0.84034 -8.85082,-2.76286 -0.79803,-0.25996 -1.58396,-0.56829 -1.74115,-0.68315 -0.15718,-0.11487 -0.81011,-0.37483 -1.45095,-0.57434 -1.74719,-0.55015 -7.88956,-3.58507 -9.93299,-4.90302 -2.85354,-1.84392 -5.66476,-4.79419 -6.72275,-7.05526 -1.44491,-3.09537 -1.37841,-3.68784 1.28772,-11.87364 0.70734,-2.17038 1.28772,-4.23195 1.28772,-4.5705 0,-0.33856 0.13301,-0.6227 0.29019,-0.6227 0.15719,0 0.29019,0.39296 0.29019,0.87662 0,0.48365 0.10882,1.1003 0.24787,1.3784 0.13905,0.2781 0.49575,1.01567 0.79803,1.63837 1.08821,2.24898 4.44959,5.37457 8.24021,7.66587 2.10388,1.26959 7.1399,3.59111 9.87253,4.54632 4.5705,1.6021 9.98135,3.28883 12.48425,3.8934 3.66366,0.88871 8.02861,1.77137 10.8882,2.20666 1.75323,0.266 4.56445,0.73756 6.2391,1.03985 7.04317,1.28772 21.12347,2.5573 35.06471,3.16187 6.78926,0.29623 8.1858,0.20555 8.1858,-0.52597 0,-0.12092 0.82221,-1.457 1.83183,-2.96237 1.00962,-1.51141 2.38198,-3.65761 3.05305,-4.77605 0.67107,-1.11845 1.94065,-3.1921 2.82936,-4.61283 1.05799,-1.70487 1.51141,-2.67822 1.324,-2.87168 -0.17533,-0.17532 -2.90191,-0.26601 -7.05527,-0.23578 -7.29709,0.0544 -18.60243,-0.36274 -22.58651,-0.84639 -1.35423,-0.16323 -4.49191,-0.50179 -6.96458,-0.7557 -12.2787,-1.2575 -17.21194,-2.04343 -26.41341,-4.21381 -7.14594,-1.68069 -9.7758,-2.47872 -14.95087,-4.5161 -6.68647,-2.62985 -11.2328,-5.43503 -13.42132,-8.27043 -1.64441,-2.13412 -2.10993,-3.36138 -2.09179,-5.53177 0.0242,-2.61776 0.46551,-3.5246 4.51609,-9.22564 0.73757,-1.03985 1.75929,-2.5029 2.26712,-3.25256 l 0.92498,-1.36631 -0.12091,1.6565 c -0.10278,1.41468 0.0181,1.9467 0.82825,3.63948 2.12807,4.44959 7.53892,8.00443 17.49609,11.49276 3.16187,1.10635 11.95223,3.36742 15.28942,3.93571 1.35423,0.22974 4.03245,0.68921 5.94891,1.02172 1.91647,0.33251 5.31412,0.80407 7.54496,1.03985 2.23689,0.24182 5.10857,0.5562 6.3842,0.70129 7.1399,0.81616 16.97616,1.19704 28.54147,1.10635 11.54717,-0.0907 12.00664,-0.11486 12.33915,-0.65897 1.72906,-2.87773 6.85576,-13.246 6.86785,-13.88684 v -0.81011 l -1.66255,0.15718 c -13.13113,1.22727 -27.24166,1.23936 -39.55058,0.0181 -2.47267,-0.24183 -6.02751,-0.57434 -7.89561,-0.72548 -1.8681,-0.15114 -5.19925,-0.62874 -7.39986,-1.04589 -2.20062,-0.41715 -4.58864,-0.87058 -5.30808,-0.99753 -6.50511,-1.16681 -15.48288,-3.97804 -20.1743,-6.31165 -4.25613,-2.11598 -7.37568,-5.09648 -7.98629,-7.62356 -0.77384,-3.22232 0.93103,-5.82799 6.46883,-9.86648 0.76176,-0.5562 2.18248,-1.63837 3.15583,-2.40012 0.97335,-0.7678 1.81369,-1.34818 1.8681,-1.29377 0.0544,0.0544 -0.0846,0.61666 -0.31437,1.2454 -0.50179,1.41468 -0.51388,1.75928 -0.12696,3.57298 0.37483,1.75928 1.66255,3.33114 4.06872,4.97556 2.82936,1.9346 5.64663,3.1256 12.46006,5.2718 5.84614,1.84392 13.06463,2.96841 26.26831,4.08685 5.45922,0.46552 24.19466,0.47156 29.32136,0.0181 2.07365,-0.18742 5.73127,-0.4897 8.12534,-0.68316 2.39408,-0.18741 4.53423,-0.4897 4.75188,-0.65897 0.35064,-0.2781 0.89475,-1.37236 2.20061,-4.40123 0.20555,-0.47761 0.64688,-1.457 0.97335,-2.17643 1.60814,-3.50043 2.71449,-6.74694 2.40616,-7.05526 -0.22973,-0.22974 -1.66255,0.0181 -5.18111,0.8887 -2.67218,0.66503 -6.16656,1.34214 -7.76261,1.51142 -9.20146,0.97334 -11.81318,1.1789 -16.47437,1.31794 -5.20529,0.15115 -13.92915,-0.18741 -17.92532,-0.70734 -1.19704,-0.15114 -3.6153,-0.42924 -5.36853,-0.6106 -1.75324,-0.18137 -3.65157,-0.44738 -4.20777,-0.59248 -0.5562,-0.14509 -2.96236,-0.72547 -5.3383,-1.29376 -5.28993,-1.2575 -8.39135,-2.4364 -11.06352,-4.19568 -3.02282,-2.00111 -4.02035,-3.73621 -3.33719,-5.80986 0.91893,-2.78704 5.87636,-5.6164 14.08029,-8.02257 0.79803,-0.23578 1.71092,-0.53806 2.03134,-0.67711 0.32042,-0.13905 0.97335,-0.32042 1.45095,-0.40506 l 0.87057,-0.15718 -0.87057,0.4111 c -0.4776,0.22369 -1.00357,0.41715 -1.16681,0.4232 -0.16323,0 -0.93103,0.56829 -1.69882,1.2454 -1.324,1.16681 -1.40259,1.31795 -1.42677,2.72658 -0.0121,0.93708 0.15718,1.76533 0.46551,2.23084 1.51141,2.30944 7.285,4.54028 14.72114,5.68895 3.57902,0.5562 11.63181,1.1789 15.18665,1.1789 5.51362,0 15.34383,-0.97939 20.33149,-2.01924 1.76532,-0.36879 6.39024,-1.9467 7.73842,-2.6359 2.95027,-1.51141 4.26822,-3.60925 3.47624,-5.52572 -0.46551,-1.12449 -2.53312,-2.82331 -3.72411,-3.06514 -0.50784,-0.10277 -0.99149,-0.29623 -1.07613,-0.43528 -0.35669,-0.57434 0.57434,-0.32042 7.56914,2.09179 4.66119,1.60814 4.60678,1.60209 4.97557,0.79802 0.53201,-1.16076 2.4243,-6.8618 2.4243,-7.29104 0,-0.133 0.24787,-0.78593 0.55015,-1.457 0.30228,-0.67107 0.63479,-1.67464 0.74362,-2.23084 0.10882,-0.5562 0.31437,-1.27563 0.45342,-1.59605 0.47156,-1.05799 1.19099,-3.43997 2.19457,-7.25477 0.5441,-2.07365 1.6565,-6.25724 2.46662,-9.2861 0.81616,-3.03492 1.59605,-6.16656 1.74719,-6.96458 0.42319,-2.2913 0.9008,-4.51005 1.34818,-6.2391 0.22973,-0.87662 0.58642,-2.70845 0.80407,-4.06267 0.21159,-1.35423 0.71338,-3.97199 1.10635,-5.80382 0.39901,-1.83787 0.81616,-4.35286 0.93103,-5.59222 0.11486,-1.23935 0.30228,-2.30943 0.41715,-2.38198 0.11486,-0.0726 0.6227,2.64195 1.13053,6.0275 1.25749,8.39135 1.63837,18.34248 1.21518,31.64289 -0.16928,5.30203 -0.42925,10.42268 -0.57434,11.37789 -0.64688,4.28636 -0.86453,6.14238 -1.3119,11.17839 -0.58643,6.65021 -1.22122,11.55322 -1.75324,13.64502 -0.22369,0.87661 -0.92498,3.8148 -1.55373,6.52929 -3.24651,13.98357 -7.96211,28.23314 -12.40566,37.46483 -0.5441,1.12449 -0.98543,2.13412 -0.98543,2.24294 0,0.19346 -2.45453,5.3383 -6.39025,13.41527 -1.08821,2.23689 -2.44848,5.04207 -3.01677,6.23911 -0.56829,1.19703 -1.81974,3.48229 -2.76891,5.07833 -0.94916,1.59605 -1.74114,3.02282 -1.74114,3.16792 -0.0121,0.37483 -4.14731,7.37568 -6.17864,10.45291 -0.93708,1.42677 -1.97693,3.1256 -2.30339,3.77248 -0.32647,0.65293 -1.46305,2.35176 -2.52104,3.77248 -1.05798,1.42677 -2.31548,3.20419 -2.79308,3.95385 -1.45096,2.26712 -5.0602,7.0069 -9.58234,12.58098 -1.43887,1.77137 -2.92005,3.61529 -3.28883,4.0929 -3.30092,4.25009 -13.94125,15.24711 -20.79701,21.4983 -3.99616,3.64552 -12.33915,10.42268 -14.72718,11.96432 -0.42319,0.27206 -1.74114,1.17286 -2.93213,1.99506 -2.46662,1.71092 -8.31276,5.25971 -11.51695,7.00086 -3.57297,1.9346 -7.6961,4.02639 -8.29462,4.20776 -0.30833,0.0907 -1.9346,0.77384 -3.60925,1.51746 -3.46415,1.53559 -12.38751,4.55841 -15.48893,5.24157 -8.26439,1.83183 -11.32953,2.16434 -19.34,2.12806 -3.59716,-0.0181 -7.78679,-0.20555 -9.32238,-0.41715 z"
     inkscape:export-filename="international.png"
     inkscape:export-xdpi="264.87381"
     inkscape:export-ydpi="264.87381"
     style="stroke-width:0.604564" />
  <g
     id="g1"
     inkscape:groupmode="layer"
     inkscape:label="Image" />
</svg>
