<?xml version="1.0" encoding="UTF-8"?>
<svg id="svg1" xmlns="http://www.w3.org/2000/svg" version="1.1" xmlns:inkscape="http://www.inkscape.org/namespaces/inkscape" xmlns:sodipodi="http://sodipodi.sourceforge.net/DTD/sodipodi-0.dtd" xmlns:svg="http://www.w3.org/2000/svg" viewBox="0 0 500.16 500.16">
  <!-- Generator: Adobe Illustrator 29.7.1, SVG Export Plug-In . SVG Version: 2.1.1 Build 8)  -->
  <defs>
    <style>
      .st0 {
        fill: #fff;
      }

      .st1 {
        fill: #074cae;
      }
    </style>
  </defs>
  <sodipodi:namedview id="namedview1" bordercolor="#000000" borderopacity="0.25" inkscape:current-layer="g1" inkscape:cx="315.4134" inkscape:cy="195.0624" inkscape:deskcolor="#d1d1d1" inkscape:pagecheckerboard="0" inkscape:pageopacity="0.0" inkscape:showpageshadow="2" inkscape:window-height="1011" inkscape:window-maximized="1" inkscape:window-width="1920" inkscape:window-x="0" inkscape:window-y="0" inkscape:zoom="1.5994882" pagecolor="#ffffff"/>
  <circle class="st1" cx="250.08" cy="250.16" r="250"/>
  <g id="g1" inkscape:groupmode="layer" inkscape:label="Image">
    <path id="path1" class="st0" d="M117.52,442.7c-2.54-.35-5.89-.98-7.44-1.41s-4.12-1.09-5.7-1.47c-2.8-.68-4.67-1.35-8.64-3.13-1.06-.47-2.52-1-3.25-1.18-2.8-.68-1.53-1.04,4.71-1.36,7.83-.39,14.36-1.53,25.42-4.45,10.55-2.78,19.94-6.48,31.93-12.59,10.54-5.38,12.48-6.55,12.48-7.55,0-.41-1.05-1.98-2.32-3.48-1.97-2.31-3.84-4.9-5.55-7.68-.22-.35.98.32,2.66,1.49s3.62,2.43,4.31,2.8c7.64,4.11,7.09,3.92,8.6,2.98,6.81-4.26,15.84-10.68,15.84-11.27s-1.41-1.14-7.44-2.76c-3.17-.86-7.27-2.17-9.12-2.92s-3.9-1.52-4.55-1.71-3.68-1.46-6.72-2.83c-10.62-4.78-17.74-10.4-20.68-16.34-1.61-3.26-6.2-16.06-6.53-18.25l-.22-1.44,1.07,1.44c2.96,3.97,10.59,9.77,16.85,12.81,4.12,2,16.45,6.89,19.1,7.57,1.19.31,3.02.87,4.08,1.25,5.46,1.96,24.39,6.26,31.7,7.2l2.41.31,6.23-5.73c12.21-11.22,15.77-14.81,15.48-15.58-.21-.55-1.93-.94-6.93-1.54-3.65-.44-7.73-1.01-9.05-1.26s-3.81-.59-5.52-.75c-1.72-.16-3.77-.49-4.56-.72s-3.17-.74-5.28-1.13-5.25-1.05-6.96-1.46c-1.72-.42-5.07-1.17-7.44-1.67-5.88-1.25-21.92-6.04-25.93-7.74-.53-.22-2.27-.94-3.86-1.59-4.64-1.9-13.33-6.39-15.38-7.94-6.81-5.18-9.6-8.2-10.9-11.8-1.68-4.68-1.79-5.57-1.79-15.28s.34-11.69,1.24-8.86c.35,1.09,1.52,2.91,3.44,5.32,2.59,3.25,11.22,9.38,16.69,11.86,4.93,2.23,7.08,3.16,10.8,4.68,7.92,3.24,24.38,7.93,34.17,9.73,2.99.55,7.71,1.43,10.48,1.95,8.6,1.61,30.23,4.42,40.77,5.29l7.4.61.76-1.09c.42-.6,2.28-2.89,4.13-5.09,3.15-3.75,8.39-10.36,13.09-16.53,1.13-1.48,1.99-3.01,1.92-3.41-.11-.59-1.56-.79-7.81-1.07-10.54-.48-24.54-1.66-32.89-2.76-3.83-.51-9.66-1.26-12.96-1.69-5.35-.68-9.37-1.38-18.25-3.16-1.45-.29-3.72-.75-5.04-1.01-2.1-.42-7.43-1.64-14.64-3.35-1.89-.45-4.91-1.39-14.64-4.57-1.32-.43-2.62-.94-2.88-1.13-.26-.19-1.34-.62-2.4-.95-2.89-.91-13.05-5.93-16.43-8.11-4.72-3.05-9.37-7.93-11.12-11.67-2.39-5.12-2.28-6.1,2.13-19.64,1.17-3.59,2.13-7,2.13-7.56s.22-1.03.48-1.03.48.65.48,1.45.18,1.82.41,2.28.82,1.68,1.32,2.71c1.8,3.72,7.36,8.89,13.63,12.68,3.48,2.1,11.81,5.94,16.33,7.52,7.56,2.65,16.51,5.44,20.65,6.44,6.06,1.47,13.28,2.93,18.01,3.65,2.9.44,7.55,1.22,10.32,1.72,11.65,2.13,34.94,4.23,58,5.23,11.23.49,13.54.34,13.54-.87,0-.2,1.36-2.41,3.03-4.9,1.67-2.5,3.94-6.05,5.05-7.9s3.21-5.28,4.68-7.63c1.75-2.82,2.5-4.43,2.19-4.75-.29-.29-4.8-.44-11.67-.39-12.07.09-30.77-.6-37.36-1.4-2.24-.27-7.43-.83-11.52-1.25-20.31-2.08-28.47-3.38-43.69-6.97-11.82-2.78-16.17-4.1-24.73-7.47-11.06-4.35-18.58-8.99-22.2-13.68-2.72-3.53-3.49-5.56-3.46-9.15.04-4.33.77-5.83,7.47-15.26,1.22-1.72,2.91-4.14,3.75-5.38l1.53-2.26-.2,2.74c-.17,2.34.03,3.22,1.37,6.02,3.52,7.36,12.47,13.24,28.94,19.01,5.23,1.83,19.77,5.57,25.29,6.51,2.24.38,6.67,1.14,9.84,1.69s8.79,1.33,12.48,1.72c3.7.4,8.45.92,10.56,1.16,11.81,1.35,28.08,1.98,47.21,1.83,19.1-.15,19.86-.19,20.41-1.09,2.86-4.76,11.34-21.91,11.36-22.97v-1.34l-2.75.26c-21.72,2.03-45.06,2.05-65.42.03-4.09-.4-9.97-.95-13.06-1.2s-8.6-1.04-12.24-1.73-7.59-1.44-8.78-1.65c-10.76-1.93-25.61-6.58-33.37-10.44-7.04-3.5-12.2-8.43-13.21-12.61-1.28-5.33,1.54-9.64,10.7-16.32,1.26-.92,3.61-2.71,5.22-3.97,1.61-1.27,3-2.23,3.09-2.14s-.14,1.02-.52,2.06c-.83,2.34-.85,2.91-.21,5.91.62,2.91,2.75,5.51,6.73,8.23,4.68,3.2,9.34,5.17,20.61,8.72,9.67,3.05,21.61,4.91,43.45,6.76,9.03.77,40.02.78,48.5.03,3.43-.31,9.48-.81,13.44-1.13,3.96-.31,7.5-.81,7.86-1.09.58-.46,1.48-2.27,3.64-7.28.34-.79,1.07-2.41,1.61-3.6,2.66-5.79,4.49-11.16,3.98-11.67-.38-.38-2.75.03-8.57,1.47-4.42,1.1-10.2,2.22-12.84,2.5-15.22,1.61-19.54,1.95-27.25,2.18-8.61.25-23.04-.31-29.65-1.17-1.98-.25-5.98-.71-8.88-1.01-2.9-.3-6.04-.74-6.96-.98s-4.9-1.2-8.83-2.14c-8.75-2.08-13.88-4.03-18.3-6.94-5-3.31-6.65-6.18-5.52-9.61,1.52-4.61,9.72-9.29,23.29-13.27,1.32-.39,2.83-.89,3.36-1.12s1.61-.53,2.4-.67l1.44-.26-1.44.68c-.79.37-1.66.69-1.93.7-.27,0-1.54.94-2.81,2.06-2.19,1.93-2.32,2.18-2.36,4.51-.02,1.55.26,2.92.77,3.69,2.5,3.82,12.05,7.51,24.35,9.41,5.92.92,19.24,1.95,25.12,1.95,9.12,0,25.38-1.62,33.63-3.34,2.92-.61,10.57-3.22,12.8-4.36,4.88-2.5,7.06-5.97,5.75-9.14-.77-1.86-4.19-4.67-6.16-5.07-.84-.17-1.64-.49-1.78-.72-.59-.95.95-.53,12.52,3.46,7.71,2.66,7.62,2.65,8.23,1.32.88-1.92,4.01-11.35,4.01-12.06,0-.22.41-1.3.91-2.41s1.05-2.77,1.23-3.69c.18-.92.52-2.11.75-2.64.78-1.75,1.97-5.69,3.63-12,.9-3.43,2.74-10.35,4.08-15.36,1.35-5.02,2.64-10.2,2.89-11.52.7-3.79,1.49-7.46,2.23-10.32.38-1.45.97-4.48,1.33-6.72.35-2.24,1.18-6.57,1.83-9.6.66-3.04,1.35-7.2,1.54-9.25s.5-3.82.69-3.94,1.03,4.37,1.87,9.97c2.08,13.88,2.71,30.34,2.01,52.34-.28,8.77-.71,17.24-.95,18.82-1.07,7.09-1.43,10.16-2.17,18.49-.97,11-2.02,19.11-2.9,22.57-.37,1.45-1.53,6.31-2.57,10.8-5.37,23.13-13.17,46.7-20.52,61.97-.9,1.86-1.63,3.53-1.63,3.71,0,.32-4.06,8.83-10.57,22.19-1.8,3.7-4.05,8.34-4.99,10.32s-3.01,5.76-4.58,8.4-2.88,5-2.88,5.24c-.02.62-6.86,12.2-10.22,17.29-1.55,2.36-3.27,5.17-3.81,6.24-.54,1.08-2.42,3.89-4.17,6.24-1.75,2.36-3.83,5.3-4.62,6.54-2.4,3.75-8.37,11.59-15.85,20.81-2.38,2.93-4.83,5.98-5.44,6.77-5.46,7.03-23.06,25.22-34.4,35.56-6.61,6.03-20.41,17.24-24.36,19.79-.7.45-2.88,1.94-4.85,3.3-4.08,2.83-13.75,8.7-19.05,11.58-5.91,3.2-12.73,6.66-13.72,6.96-.51.15-3.2,1.28-5.97,2.51-5.73,2.54-20.49,7.54-25.62,8.67-13.67,3.03-18.74,3.58-31.99,3.52-5.95-.03-12.88-.34-15.42-.69h-.1Z" inkscape:export-filename="international.png" inkscape:export-xdpi="264.87381" inkscape:export-ydpi="264.87381"/>
  </g>
</svg>